<?xml version="1.0" encoding="utf-8"?>
<!-- Generator: Adobe Illustrator 23.0.0, SVG Export Plug-In . SVG Version: 6.00 Build 0)  -->
<svg version="1.1" id="Layer_1" xmlns="http://www.w3.org/2000/svg" xmlns:xlink="http://www.w3.org/1999/xlink" x="0px" y="0px"
	 viewBox="0 0 491 188" style="enable-background:new 0 0 491 188;" xml:space="preserve">
<style type="text/css">
	.st0{fill:#D4ECFF;}
	.st1{fill:#5793CE;}
	.st2{fill:#396CAA;}
	.st3{fill:#475559;}
	.st4{fill:#BA4F4F;}
	.st5{fill:#BC5353;}
	.st6{fill:#C94545;}
	.st7{fill:#E05D5D;}
	.st8{fill:#00B0A8;}
	.st9{fill:#FF69B8;}
	.st10{fill:#B768A1;}
	.st11{fill:#D354A9;}
	.st12{fill:#FFFFFF;}
	.st13{fill:#C18474;}
	.st14{fill:#FFC2B0;}
	.st15{fill:#EA9C92;}
	.st16{fill:#231F20;}
	.st17{fill:#5889D1;}
	.st18{fill:#FFDFCB;}
	.st19{fill:#047C73;}
	.st20{fill:#1EBCB0;}
</style>
<g>
	<ellipse class="st0" cx="51.8" cy="155.1" rx="18" ry="10.4"/>
	<g>
		
			<rect x="9.4" y="133.1" transform="matrix(0.2483 0.9687 -0.9687 0.2483 139.0778 92.0093)" class="st1" width="1.7" height="5.1"/>
		
			<rect x="6.9" y="135.5" transform="matrix(0.2483 0.9687 -0.9687 0.2483 139.5634 96.2857)" class="st1" width="1.8" height="5.1"/>
		
			<rect x="4.4" y="138" transform="matrix(0.2482 0.9687 -0.9687 0.2482 140.0504 100.5665)" class="st1" width="1.7" height="5.1"/>
		
			<rect x="1.8" y="140.4" transform="matrix(0.2483 0.9687 -0.9687 0.2483 140.5335 104.8343)" class="st1" width="1.7" height="5.1"/>
	</g>
	<g>
		<g>
			<g>
				<path class="st0" d="M70.9,116.7l1.8-15.2c10.5,0.6,20.8,2.5,30.2,5.8l-14.2,12.8C83.1,118.3,77.1,117.2,70.9,116.7z"/>
			</g>
			<g>
				<path class="st2" d="M70.9,108.8l1.8-15.2c10.5,0.6,20.8,2.5,30.2,5.8l-14.2,12.8C83.1,110.4,77.1,109.3,70.9,108.8z"/>
			</g>
			<polygon class="st2" points="70.9,76.7 88.3,77.5 88.6,80.1 88.6,112.2 75.1,107.1 70.9,108.8 			"/>
			<polygon class="st3" points="102.9,67.3 102.9,99.4 88.6,112.2 88.6,80.1 			"/>
			<g>
				<path class="st0" d="M70.9,76.7l1.8-15.2c10.5,0.6,20.8,2.5,30.2,5.8L88.6,80.1C83.1,78.3,77.1,77.1,70.9,76.7z"/>
			</g>
		</g>
		<g>
			<g>
				<path class="st0" d="M65.5,116.4c-11.6-0.1-23.2,2.3-32.4,7l-18.6-10.7c14.8-8,33.8-11.8,52.7-11.4L65.5,116.4z"/>
			</g>
			<g>
				<path class="st2" d="M65.5,108.6c-11.6-0.1-23.2,2.3-32.4,7l-18.6-10.7c14.8-8,33.8-11.8,52.7-11.4L65.5,108.6z"/>
			</g>
			<polygon class="st2" points="65.5,108.6 65.5,97.5 67.3,82.4 67.3,93.5 			"/>
			<polygon class="st3" points="14.6,93.8 14.6,104.9 33.2,115.6 33.2,104.5 			"/>
			<g>
				<path class="st1" d="M65.5,97.5c-11.6-0.1-23.2,2.3-32.4,7L14.6,93.8c14.8-8,33.8-11.8,52.7-11.4L65.5,97.5z"/>
			</g>
		</g>
		<g>
			<g>
				<path class="st0" d="M105.7,158.4c11.4-10.6,9.1-24.8-6.9-34c-1.8-1-3.7-2-5.7-2.8l14.2-12.8c3.5,1.4,6.9,3,10,4.8
					c25.1,14.5,28.4,36.8,9.9,53.4L105.7,158.4z"/>
			</g>
			<g>
				<path class="st4" d="M105.7,150.7c11.4-10.6,9.1-24.8-6.9-34c-1.8-1-3.7-2-5.7-2.8l14.2-12.8c3.5,1.4,6.9,3,10,4.8
					c25.1,14.5,28.4,36.8,9.9,53.4L105.7,150.7z"/>
			</g>
			<path class="st4" d="M93.1,94.1v19.7l12.6,4.7c0,0,16.4-8.9,16.4-9.1c0-0.2-2.8-19.1-4.8-20C115.3,88.6,93.1,94.1,93.1,94.1z"/>
			<polygon class="st5" points="105.7,150.7 105.7,130.9 127.3,139.6 127.3,159.4 			"/>
			<path class="st6" d="M127.3,127.2v32.1c0,0,11.3-9.5,11.8-22.1l0-20.6l-13.1-1.9L127.3,127.2z"/>
			<g>
				<path class="st7" d="M105.7,130.9c11.4-10.6,9.1-24.8-6.9-34c-1.8-1-3.7-2-5.7-2.8l14.2-12.8c3.5,1.4,6.9,3,10,4.8
					c25.1,14.5,28.4,36.8,9.9,53.4L105.7,130.9z"/>
			</g>
		</g>
	</g>
	<rect x="351.9" y="171.2" transform="matrix(0.8974 -0.4412 0.4412 0.8974 -40.7614 175.0136)" class="st0" width="8" height="8"/>
	<path class="st8" d="M76.9,136.8l-4.4-9l9-4.4l4.4,9L76.9,136.8z M75.1,128.8l2.6,5.4l5.4-2.6l-2.6-5.4L75.1,128.8z"/>
	<rect x="192.8" y="95.6" transform="matrix(0.8974 -0.4412 0.4412 0.8974 -23.7669 97.0711)" class="st0" width="8" height="8"/>
	<path class="st9" d="M278.7,28.3l-4.4-9l9-4.4l4.4,9L278.7,28.3z M277,20.3l2.6,5.4L285,23l-2.6-5.4L277,20.3z"/>
	<path class="st8" d="M482,130.3l-4.4-9l9-4.4l4.4,9L482,130.3z M480.3,122.2l2.6,5.4l5.4-2.6l-2.6-5.4L480.3,122.2z"/>
	<g>
		<path class="st0" d="M358.2,160.9c17.1,9.8,44.7,9.8,61.8,0c17.1-9.8,17.1-25.8,0-35.7s-44.7-9.8-61.8,0
			C341.1,135,341.1,151,358.2,160.9z M374.9,134.8c7.8-4.5,20.6-4.5,28.4,0c7.8,4.5,7.8,11.9,0,16.4c-7.8,4.5-20.6,4.5-28.4,0
			C367,146.7,367,139.4,374.9,134.8z"/>
		<g>
			<g>
				<path class="st10" d="M426.4,119.4l-15.6,0.2c-1.2-1.5-2.8-2.9-4.9-4.1c-8.6-4.9-22-5.3-31.4-1.2l-9.3-8.7l-14.3,0.2
					c0.7-0.5,1.4-0.9,2.2-1.4c19.8-11.4,51.9-11.4,71.8,0c3.6,2.1,6.6,4.4,8.9,6.9L426.4,119.4z"/>
				<polygon class="st11" points="351,83.2 351,105.8 365.2,105.6 365.2,83 				"/>
				<polygon class="st10" points="374.5,91.7 374.5,114.3 365.2,105.6 365.2,83 				"/>
				<path class="st7" d="M410.8,97v22.6l-20.5-16.7l-15.8,11.4V91.7l14.6-7.1c0,0,20,6.1,21.1,6.4C411.2,91.3,410.8,97,410.8,97z"/>
				<polygon class="st5" points="426.4,96.7 426.4,119.4 410.8,119.6 410.8,97 				"/>
				<polygon class="st6" points="433.8,88.8 433.8,111.4 426.4,119.4 426.4,96.7 				"/>
				<path class="st5" d="M426.4,96.7L410.8,97c-1.2-1.5-2.8-2.9-4.9-4.1c-8.6-4.9-22-5.3-31.4-1.2l-9.3-8.7L351,83.2
					c0.7-0.5,1.4-0.9,2.2-1.4c19.8-11.4,51.9-11.4,71.8,0c3.6,2.1,6.6,4.4,8.9,6.9L426.4,96.7z"/>
			</g>
			<g>
				<path class="st1" d="M369.8,94.5v20.8l-13.5-3.2c0,0,0.8-12.2,1.1-12.5C357.7,99.2,369.8,94.5,369.8,94.5z"/>
				<g>
					<path class="st3" d="M380,115.3v22.6l-1.5,1.6L369,134c0,0,1.5-17.3,1.6-17.6C370.9,116,380,115.3,380,115.3z"/>
					<path class="st2" d="M361.7,109.4l8.2,7.7c-6.8,5.4-6,13,2.4,17.8c2.3,1.3,5,2.3,7.8,3l-8.4,9l7.5,7c-9.5-1.1-18.5-3.8-25.9-8
						c-17-9.8-19.4-24.9-7.2-36.2L361.7,109.4z"/>
					<polygon class="st2" points="379.1,131.3 379.1,153.9 360.6,146.8 338.3,125.5 338.4,101.5 361.9,120.2 					"/>
					<path class="st0" d="M361.7,86.8l8.2,7.7c-6.8,5.4-6,13,2.4,17.8c2.3,1.3,5,2.3,7.8,3l-8.4,9l7.5,7c-9.5-1.1-18.5-3.8-25.9-8
						c-17-9.8-19.4-24.9-7.2-36.2L361.7,86.8z"/>
				</g>
			</g>
			<g>
				<path class="st2" d="M379.1,146.8l7.4-7.9c6.9,0.4,14.1-0.9,19.3-3.9c5.5-3.2,7.7-7.5,6.8-11.6l17.7-0.3l6.8-7.2
					c6,10.2,1.9,21.9-12.2,30.1c-10.4,6-24.1,8.8-37.6,8.6L379.1,146.8z"/>
				<polygon class="st2" points="387.3,131.8 387.3,154.5 439.8,125.4 439.8,102.7 432.1,105.8 				"/>
				<polygon class="st3" points="379.1,124.1 379.1,146.8 387.3,154.5 387.3,131.8 				"/>
				<path class="st1" d="M379.1,124.1l7.4-7.9c6.9,0.4,14.1-0.9,19.3-3.9c5.5-3.2,7.7-7.5,6.8-11.6l17.7-0.3l6.8-7.2
					c6,10.2,1.9,21.9-12.2,30.1c-10.4,6-24.1,8.8-37.6,8.6L379.1,124.1z"/>
			</g>
		</g>
	</g>
	<circle class="st9" cx="369.9" cy="52.9" r="5.5"/>
	<path class="st0" d="M15,41.7c0,2.6-2.1,4.7-4.7,4.7c-2.6,0-4.7-2.1-4.7-4.7c0-2.6,2.1-4.7,4.7-4.7C12.9,37,15,39.1,15,41.7z"/>
	<path class="st0" d="M96.9,170.8c0,2.1-1.7,3.8-3.8,3.8s-3.8-1.7-3.8-3.8c0-2.1,1.7-3.8,3.8-3.8S96.9,168.7,96.9,170.8z"/>
	<g>
		<g>
			<path class="st1" d="M419.7,31.8l-26.2-15.1c-0.5-0.3-1-0.3-1.4-0.1c0,0,0,0,0,0l-2.5,1.5c0,0,1.1,0.4,1.8,0.7v19.1
				c0,1.6,0.9,3.4,2.1,4l25.1,14.5v2.2l2.6-1.5l0,0c0.4-0.3,0.7-0.8,0.7-1.7V35.8C421.8,34.3,420.8,32.5,419.7,31.8z"/>
			<path class="st0" d="M417.1,58.4l-26.2-15.1c-1.2-0.7-2.1-2.5-2.1-4V19.8c0-1.6,0.9-2.3,2.1-1.6l26.2,15.1c1.2,0.7,2.1,2.5,2.1,4
				v19.5C419.2,58.4,418.3,59.1,417.1,58.4z"/>
		</g>
		<g>
			<path class="st12" d="M399.7,36.6c0,1.1-0.8,1.6-1.8,1c-1-0.6-1.8-1.9-1.8-3.1c0-1.1,0.8-1.6,1.8-1
				C398.9,34.1,399.7,35.4,399.7,36.6z"/>
			<path class="st12" d="M405,39.7c0,1.1-0.8,1.6-1.8,1c-1-0.6-1.8-1.9-1.8-3.1c0-1.1,0.8-1.6,1.8-1C404.3,37.2,405,38.5,405,39.7z"
				/>
			<path class="st12" d="M410.4,42.8c0,1.1-0.8,1.6-1.8,1c-1-0.6-1.8-1.9-1.8-3.1c0-1.1,0.8-1.6,1.8-1
				C409.6,40.3,410.4,41.6,410.4,42.8z"/>
		</g>
	</g>
	<g>
		<polygon class="st0" points="196.8,170.1 212.5,161.1 228.1,170.1 212.5,179.2 		"/>
		<polygon class="st0" points="230.1,150.7 245.7,141.7 261.3,150.7 245.7,159.7 		"/>
		<polygon class="st0" points="263.2,131.8 278.8,122.7 294.5,131.8 278.8,140.8 		"/>
		<g>
			<g>
				<g>
					<polygon class="st13" points="245.7,150.7 245.7,102.5 230.1,93.5 230.1,141.7 					"/>
					<polygon class="st3" points="245.7,102.5 261.3,93.5 261.3,141.7 245.7,150.7 					"/>
					<polygon class="st2" points="245.7,150.7 245.7,102.5 230.1,93.5 230.1,141.7 					"/>
				</g>
				<g>
					<polygon class="st3" points="212.5,170.1 212.5,143 196.8,134 196.8,161.1 					"/>
					<polygon class="st2" points="212.5,143 228.1,134 228.1,161.1 212.5,170.1 					"/>
					<polygon class="st0" points="196.8,134 212.5,125 228.1,134 212.5,143 					"/>
				</g>
				<g>
					<polygon class="st4" points="278.8,131.8 278.8,65.5 263.2,56.5 263.2,122.7 					"/>
					<polygon class="st6" points="278.8,65.5 294.5,56.5 294.5,122.7 278.8,131.8 					"/>
					<polygon class="st7" points="263.2,56.5 278.8,47.4 294.5,56.5 278.8,65.5 					"/>
				</g>
			</g>
			<polygon class="st1" points="230.1,93.5 245.7,84.5 261.3,93.5 245.7,102.5 			"/>
		</g>
	</g>
	<g>
		<g>
			<g>
				<path class="st1" d="M230.4,134.3c0,0-3-0.8-4.2,1.6c-1.2,2.4-2.6,7.7-2,11c0.6,3.3,3.2,2.5,4.6,1.4c1.4-1.1,4.6-8.8,4.6-10.2
					c0-1.4-1-3-1.5-3.3C231.4,134.6,230.4,134.3,230.4,134.3z"/>
				<path class="st0" d="M232,133.4l0.1,2.9c0,0.6-0.3,1.2-0.8,1.5c-0.5,0.3-1.2,0.5-2.1,0.3c-2.1-0.3-2.3-0.9-2.4-3.8
					C226.6,131.5,232,133.4,232,133.4z"/>
				<g>
					<path class="st1" d="M222.4,129.8c0,0-2.1-2.3-4.5-0.9c-2.3,1.4-6.3,5.2-7.5,8.3c-1.2,3.1,1.4,3.8,3.2,3.6
						c1.8-0.2,8.6-5,9.3-6.1c0.7-1.2,0.8-3.1,0.5-3.6C223.1,130.6,222.4,129.8,222.4,129.8z"/>
					<path class="st0" d="M221.8,127.9l0.1,2.9c0,0.6-0.3,1.2-0.8,1.5c-0.5,0.3-1.2,0.5-2.1,0.3c-2.1-0.3-2.3-0.9-2.4-3.8
						C216.4,125.9,221.8,127.9,221.8,127.9z"/>
					<path class="st3" d="M246.6,75c-0.8-13.4-14.5,2-14.5,2l-9.4,9.2l-8.4,9.3c-1.6,1.8-2.4,4.3-2.1,6.7l3.4,26
						c0.2,1.3,1.3,2.2,2.6,2.2c0.4,0,0.8,0,1.3-0.1c3-0.5,2.8-3.4,2.8-3.4l-0.6-24.3l17.7-10.7C239.4,91.8,247.4,88.4,246.6,75z"/>
				</g>
				<path class="st3" d="M256.8,80.1c-0.8-13.4-14.5,2-14.5,2l-9.4,9.2l-8.4,9.3c-1.6,1.8-2.4,4.3-2.1,6.7l3.4,26
					c0.2,1.3,1.3,2.2,2.6,2.2c0.4,0,0.8,0,1.3-0.1c3-0.5,2.8-3.4,2.8-3.4l-0.6-24.3l17.7-10.7C249.5,96.9,257.6,93.5,256.8,80.1z"/>
				<path class="st1" d="M248.7,37c10.4,4.3,10.2,10.4,10.2,10.4s-2,22.5-1.3,37.5c0.3,6.3-33.4,6.8-28.3-10
					c5.9-19.8,3.7-35.7,6.5-38.2C238.4,34.4,246,35.9,248.7,37z"/>
				<path class="st14" d="M252,42.5c-0.5,2.1-3.3,3.2-6.2,2.5c-2.9-0.7-4.7-3-4.2-5.2c0.5-2.1,3.3-3.2,6.2-2.5
					C250.7,38.1,252.6,40.4,252,42.5z"/>
				<path class="st12" d="M247.6,45.7c-0.6,0-1.2-0.1-1.9-0.2c-3.1-0.8-5.2-3.4-4.6-5.8c0.3-1.2,1.2-2.1,2.5-2.6
					c1.3-0.5,2.8-0.6,4.3-0.2c1.5,0.4,2.8,1.2,3.6,2.2c0.9,1.1,1.2,2.4,0.9,3.5C252,44.5,250,45.7,247.6,45.7z M246.1,37.6
					c-0.7,0-1.4,0.1-2,0.4c-1,0.4-1.7,1.1-1.9,2c-0.5,1.8,1.3,3.9,3.8,4.5c2.6,0.7,5.1-0.3,5.6-2.1c0.2-0.9,0-1.8-0.7-2.7
					c-0.7-0.9-1.8-1.6-3.1-1.9C247.2,37.7,246.6,37.6,246.1,37.6z"/>
				<path class="st14" d="M244.5,36.6c0,0,0.1,0.4-0.1,3.7c-0.1,1,3.6,2,4.5,1.1c0.9-0.9,0.6-1.9,0.8-5.4
					C250,32.4,244.5,36.6,244.5,36.6z"/>
				<path class="st15" d="M249.7,35.9c0,0-0.9,3.3-5.3,4.5l0.1-3L249.7,35.9z"/>
				<path class="st14" d="M252.5,27.6c1.1,4.3-1.5,8.6-5.7,9.7c-4.3,1.1-8.6-1.5-9.7-5.7c-1.1-4.3,1.5-8.6,5.7-9.7
					C247.1,20.8,251.4,23.4,252.5,27.6z"/>
				<path class="st15" d="M246.6,29.9c0,0-4.4,1.9-7.4,1.9c-3,0-2.4-2.5-2.4-2.5l9-1.3L246.6,29.9z"/>
				<path class="st16" d="M238.3,30.4c0,0,3.8-1.6,7.2-0.9c0.8,0.2,1.5,0.6,2,1.2c0.2,0.2,0.4,0.4,0.6,0.4c0.6,0.1,1.6-2.3,2.7-2.4
					c1.2-0.1,1.9,0.8,1,2.3s-0.6,3.2-0.2,3.5c0.4,0.2,5.1-3.3,1-11.4c-4.1-8.1-14.5-3.7-16.1-2.1c0,0-1.7,1.5-3.1,0.2
					C233.4,21.1,231.9,32.8,238.3,30.4z"/>
				<path class="st14" d="M253.1,63.9V70c0,0.7-0.3,1.4-0.8,1.8l-12.5,11.4l1.4,2.2l16.5-12c0.8-0.6,1.3-1.4,1.4-2.4l1.1-10.6
					L253.1,63.9z"/>
				<path class="st1" d="M258,44.4c0,0,3.8,5.7,5.2,20.7c0,0-6.5,2.1-10.1,0.9C249.4,64.8,258,44.4,258,44.4z"/>
				<path class="st2" d="M252.4,51.6c0,0-1.5,7.9-1.6,11.7c0,1,0.6,2,1.6,2.3l0,0V51.6z"/>
			</g>
			<g>
				<path class="st1" d="M249.1,91.1l-2.8-0.4l-17.8-10.3c-0.6-0.3-1.6-0.3-2.2,0.1l-12.6,7.3l-1.7-0.2v1.7l0,0
					c0,0.2,0.1,0.4,0.4,0.6l20.2,11.7c0.6,0.3,1.6,0.3,2.2-0.1l13.7-7.9c0.4-0.2,0.6-0.5,0.5-0.7l0,0V91.1z"/>
				<path class="st2" d="M235.7,84.6l-1.3-0.7h-13.9l-6.9,4l-1.7-0.2v1.7l0,0c0,0.2,0.1,0.4,0.4,0.6l20.2,11.7
					c0.3,0.2,0.7,0.2,1.1,0.2L235.7,84.6z"/>
				<path class="st1" d="M212.8,87.7l-0.7-0.1v1.7l0,0c0,0.2,0.1,0.4,0.4,0.6l0.4,0.2V87.7z"/>
				<path class="st12" d="M232.8,101.6c0.5,0.2,1.3,0.2,1.9-0.1v-2.8h-1.9V101.6z"/>
				<path class="st12" d="M232.6,99.9l-20.2-11.7c-0.6-0.3-0.5-0.9,0.2-1.3l13.7-7.9c0.7-0.4,1.7-0.4,2.2-0.1l20.2,11.7
					c0.6,0.3,0.5,0.9-0.2,1.3l-13.7,7.9C234.2,100.1,233.2,100.2,232.6,99.9z"/>
				<path class="st0" d="M232.3,98.1l-16.8-9.7c-0.5-0.3-0.4-0.8,0.1-1.1l7.4-4.1c0.5-0.3,1.4-0.4,1.9-0.1l16.8,9.7
					c0.5,0.3,0.4,0.8-0.1,1.1l-7.4,4.1C233.6,98.3,232.7,98.4,232.3,98.1z"/>
			</g>
			<path class="st14" d="M227.1,78.6l-0.2,1.4c-0.2,1.2-0.1,2.4,0.1,3.6l0.2,1.2c0.1,0.7,0.7,1.2,1.4,1.4l0,0
				c0.5,0.1,1.1-0.3,1.1-0.8l0.3-3c0,0,0.8,1,1.1,1c0.4,0-0.4-3-1.2-4.7C229.1,77,227.1,78.6,227.1,78.6z"/>
			<path class="st14" d="M233.9,56.5l-2.2,4.3c-0.5,1-0.8,2.1-0.9,3.3L230,78.7l-2.8-0.1l-1.3-16.5c0-0.5,0-1,0.1-1.5l1.5-8.4
				L233.9,56.5z"/>
			<g>
				<path class="st3" d="M231.9,101l-1.7-2.2l-17.8-10.3c-0.6-0.3-1-1.2-1-2l0-14.6l-1-1.3l1-0.6l0,0c0.2-0.1,0.4-0.1,0.7,0
					l20.2,11.7c0.6,0.3,1,1.2,1,2l0,15.9c0,0.4-0.1,0.7-0.4,0.8l0,0L231.9,101z"/>
				<path class="st2" d="M219.6,92.6l-1.3-0.7l-6.9-12.1l0-7.9l-1-1.3l1-0.6l0,0c0.2-0.1,0.4-0.1,0.7,0l20.2,11.7
					c0.3,0.2,0.6,0.5,0.8,0.9L219.6,92.6z"/>
				<path class="st1" d="M210.8,71.2l-0.5-0.6l1-0.6l0,0c0.2-0.1,0.4-0.1,0.7,0l0.4,0.2L210.8,71.2z"/>
				<path class="st17" d="M232.4,81.9c0.4,0.4,0.8,1.1,0.8,1.7l-2,1.1l-0.9-1.6L232.4,81.9z"/>
				<path class="st1" d="M231.3,82.3l-20.2-11.7c-0.6-0.3-1,0-1,0.8l0,15.9c0,0.8,0.5,1.6,1,2l20.2,11.7c0.6,0.3,1,0,1-0.8l0-15.9
					C232.3,83.5,231.8,82.6,231.3,82.3z"/>
			</g>
			<path class="st14" d="M241.2,85.4l-0.3,0.7c-0.4,0.8-1,1.4-1.7,1.9l-2,1.2c-0.6,0.4-1.4,0.4-2,0c0,0,0,0-0.1,0
				c-0.6-0.4-0.7-1.3-0.2-1.9l2.1-2.2c0,0-1.2,0.9-1.5,0.5c-0.2-0.3,1.1-1.6,2.2-1.6c1.1,0,2.1-0.9,2.1-0.9L241.2,85.4z"/>
			<path class="st1" d="M235.9,36.8c0,0-7.7,8.4-10.8,16c0,0,2.6,4.7,9.1,6.6C240.6,61.3,235.9,36.8,235.9,36.8z"/>
			<path class="st2" d="M232.7,58.9l1.2-12L231,58.2C231.5,58.4,232.1,58.7,232.7,58.9z"/>
			<path class="st12" d="M241.6,35.1l-2.1-0.6c0,0,1,1.5,2.4,1.9c1.4,0.4,1.7-0.8,1.7-0.8L241.6,35.1z"/>
		</g>
		<path class="st12" d="M252.6,31.8c0,0.6-0.5,1.1-1.1,1.1c-0.6,0-1.1-0.5-1.1-1.1c0-0.6,0.5-1.1,1.1-1.1
			C252.1,30.7,252.6,31.2,252.6,31.8z"/>
	</g>
	<g>
		<ellipse class="st0" cx="461.7" cy="151.1" rx="18" ry="10.4"/>
		<g>
			<path class="st9" d="M470.2,28.1c0,0-0.5,9.6-1.2,16c-0.7,6.4-16.2-4.9-16.2-4.9v-7.3L470.2,28.1z"/>
			<g>
				<path class="st3" d="M463.1,144.7c0,0.6-0.2,1.1-0.6,1.6c-1,1.2-3.4,3.7-5.8,4.4c-1.3,0.4-2.2,0.5-2.8,0.4
					c-0.6-0.1-0.9-0.7-0.7-1.3c0.5-1.5,2.1-4.6,5.9-6.5C462.7,141.5,463.2,143.4,463.1,144.7z"/>
				<path class="st3" d="M466.6,148c-1.2-0.1-2.3,0.7-2.7,1.9c-0.3,1-0.6,2.3-0.8,3.4c-0.2,1.6,0.5,3.6,1.2,4.9c0.4,0.8,1.4,1,2,0.4
					c1-1,2.3-2.8,2.5-5.3c0.1-0.9,0.1-1.7,0.1-2.3C469,149.5,468,148.2,466.6,148L466.6,148z"/>
				<path class="st14" d="M469.3,128.8l-0.9,19.8c0,1-0.9,1.8-1.9,1.8l0,0c-1,0-1.8-0.8-1.9-1.8l-1.2-22L469.3,128.8z"/>
				<path class="st14" d="M456.2,125.9l2.2,17.6c0.1,1.1,1.2,1.9,2.3,1.8l0,0c1-0.1,1.8-1.1,1.8-2.1l-0.9-18.4L456.2,125.9z"/>
				<path class="st3" d="M473,87c0,0,0.5,4.3,0,9.1c-0.5,4.8-2.4,27.3-2.7,32.7c0,0,0.2,1.6-4.4,1.3c-4.6-0.4-4.2-2.2-4.2-2.2
					s-6.5-0.1-6.7-2.7c-0.2-2.6-6.6-31.3-6.6-41.6L473,87z"/>
				<g>
					<path class="st14" d="M445.9,55.9l-3.2,4.9L431.9,74c0,0,0.4,1.2,1.7,1.5c1.1,0.2,10.2-8.5,14.1-12.3c1-1,1.2-2.6,0.4-3.9
						L445.9,55.9z"/>
					<path class="st2" d="M452.1,35.8c0,0-5-0.1-6.8,7.1c-1.7,7.3-3.1,16.4-1.6,17.1c4.6,2.3,7.5-0.4,7.5-0.4L452.1,35.8z"/>
					<path class="st1" d="M450.6,36.1c0.9-0.4,1.8-0.4,2.7-0.1c4.3,1.2,20.4,6,23,8.2c3.1,2.6-4.6,17.3-4.5,22.2
						c0.1,4.8,0.7,10.5,1.1,15.8c0.4,5.2,1,8.1-3.3,10.4c-4.3,2.2-11.6,2.3-17.1-1.8c-5.5-4.2-4.5-7-4.3-10.1
						c0.2-3,2.1-16.2,1.9-19.9c0,0-1.9-1.4-3.4-3.9c-1.4-2.4,1.1-6.9,2.1-9.8c1-2.9-0.6-6.3-0.3-8.6
						C448.9,37.1,449.7,36.5,450.6,36.1z"/>
					<path class="st12" d="M455.7,41.1c-0.3,2.7,2.1,5.1,5.4,5.6c3.3,0.4,6.3-1.4,6.7-4c0.3-2.7-2.1-5.1-5.4-5.6
						C459,36.7,456.1,38.5,455.7,41.1z"/>
					<path class="st14" d="M457.4,41.4c-0.2,1.9,1.5,3.7,3.9,4c2.4,0.3,4.5-1,4.8-2.9c0.2-1.9-1.5-3.7-3.9-4
						C459.8,38.2,457.7,39.5,457.4,41.4z"/>
					<path class="st14" d="M459.8,35.1c0,0,2.9-2.4,3.5-1.2c0.6,1.2,1,6.4,1,6.4l-5.8,1.5l0.9-5.3C459.4,36.7,458.3,35.7,459.8,35.1
						z"/>
					<path class="st14" d="M450.8,29.5c0.3,4.7,4.4,8.4,9.1,8.1c4.7-0.3,8.4-4.4,8.1-9.1c-0.3-4.7-4.4-8.4-9.1-8.1
						C454.1,20.6,450.5,24.7,450.8,29.5z"/>
					<path class="st15" d="M463.7,35.5c0.1,0.3,0.1,0.6,0.1,0.9c-0.6,3-5.1,4.3-5.1,4.3l0.7-4c0,0-0.5-0.5-0.4-0.9
						C460.8,35.2,463.1,34.7,463.7,35.5z"/>
					<path class="st14" d="M450.8,29.5c0.3,4.7,4.4,8.4,9.1,8.1c4.7-0.3,8.4-4.4,8.1-9.1c-0.3-4.7-4.4-8.4-9.1-8.1
						C454.1,20.6,450.5,24.7,450.8,29.5z"/>
					<polygon class="st14" points="480.6,65.4 479.7,88.5 476.3,88.8 474.1,68.1 					"/>
					<path class="st1" d="M469.5,63.5c0.2-0.8,1.7-1.5,1.9-2.5c1.2-5.4,1.4-13.3,1.4-13.3l0.9,10.8c-1.1,3.2-2,6.2-2,7.9
						c0.1,2.8,0.3,6,0.5,9.1l0,0C472.4,75.5,468.4,68.4,469.5,63.5z"/>
					<path class="st1" d="M475.7,43.7c0,0,2.7,1,4.2,9.3c1.5,8.3,2.7,16.6-0.1,17.6c-2.7,1.1-5,1.9-5.8-0.3
						c-0.8-2.2-1.3-12.9-1.4-16.7C472.5,49.8,472.4,44.5,475.7,43.7z"/>
					<path class="st14" d="M432.7,73c0,0-1.5,0.5-2.5,1.7c-0.9,0.9-1.3,1.7-1.7,2.3c-0.8,1.3-1.5,4-1,4.3c0.5,0.3,3.4-4.5,3.9-3.4
						c0.5,1.1,0,2.2,0.6,2.2c0.6,0,2.7-4.9,4.4-6.4C437.9,72.1,432.7,73,432.7,73z"/>
				</g>
			</g>
			<g>
				<path class="st3" d="M466.4,120.5l1.8-2.3l18.9-10.9c0.6-0.3,1.1-1.3,1.1-2.1l0-15.4l1.1-1.4l-1-0.6l0,0c-0.2-0.1-0.5-0.1-0.7,0
					l-21.4,12.4c-0.6,0.3-1.1,1.3-1.1,2.1l0,16.8c0,0.5,0.2,0.8,0.4,0.9l0,0L466.4,120.5z"/>
				<path class="st2" d="M479.5,111.7l1.3-0.8l7.4-12.8l0-8.4l1.1-1.4l-1-0.6l0,0c-0.2-0.1-0.5-0.1-0.7,0l-21.4,12.4
					c-0.3,0.2-0.6,0.5-0.8,0.9L479.5,111.7z"/>
				<path class="st2" d="M488.8,88.9l0.5-0.6l-1-0.6l0,0c-0.2-0.1-0.5-0.1-0.7,0l-0.4,0.2L488.8,88.9z"/>
				<path class="st17" d="M465.9,100.3c-0.5,0.4-0.8,1.1-0.9,1.8l2.1,1.2l1-1.7L465.9,100.3z"/>
				<path class="st1" d="M467.1,100.7l21.4-12.4c0.6-0.4,1.1,0,1.1,0.8l0,16.8c0,0.8-0.5,1.7-1.1,2.1l-21.4,12.4
					c-0.6,0.3-1.1,0-1.1-0.8l0-16.8C466,102,466.5,101.1,467.1,100.7z"/>
			</g>
			<path class="st14" d="M479.6,88.3c0,0,0.9,5.4,0.8,7.1c-0.1,1.7-1.1,4.6-1.8,4.5c-0.7-0.1,0-6.9-1.3-6.2
				c-1.2,0.7-1.4,1.9-1.9,1.4c-0.6-0.4,1-6.3,0.6-8.8C475.6,83.7,479.6,88.3,479.6,88.3z"/>
			<path class="st15" d="M456.1,29.7c-4.3,1.5-5.2,0.6-5.2,0.5c0-0.3-0.1-0.5-0.1-0.8c-0.1-1,0.1-1.9,0.3-2.8l11.2-1.5
				C462.3,25.2,460.5,28.1,456.1,29.7z"/>
			<path class="st16" d="M450.5,20.9c1-0.9,4.7-5.2,11.3-4.2c4.1,0.6,7.6,3.4,8.4,9.8c0.5,4.3-1.1,8.6-4,11.7
				c-0.2-0.1-0.3-0.1-0.5-0.2c-1.6-1.1-1.8-1.7-1.8-1.7l-0.4-3.3c0-0.5,0.4-0.9,0.8-0.9c0.4,0,0.8-0.2,1.2-0.7
				c0.9-1.2,0.5-3.2-1.4-3.2c-1,0-1.4-0.6-1.5-1.1c-0.1-0.4-0.6-0.7-1-0.5c-2.2,0.8-7.5,2.5-10.9,1.5
				C446.4,26.8,449.5,21.7,450.5,20.9z"/>
			<path class="st12" d="M455.4,33.6l-2.6-0.7c0,0,1.3,2,3.1,2.5c1.8,0.5,2.1-1.1,2.1-1.1L455.4,33.6z"/>
			<polygon class="st2" points="475.1,94.9 477.4,93.6 476.5,95 475.4,95.4 			"/>
		</g>
	</g>
	<g>
		<path class="st14" d="M34.3,12l-0.2-1.4c-0.2-1.2-0.2-2.4,0-3.6l0.2-1.2c0.1-0.7,0.7-1.2,1.3-1.4l0,0c0.5-0.1,1.1,0.3,1.1,0.8
			l0.4,3c0,0,0.7-1,1.1-1c0.4,0-0.3,3-1.1,4.7C36.4,13.6,34.3,12,34.3,12z"/>
		<path class="st14" d="M39.9,34.7l-0.5-5c-0.5-1-0.9-2.1-1-3.2l-1.2-14.6L34.3,12l-0.9,16.4c0,0.5,0,1,0.1,1.5l1.6,8.3L39.9,34.7z"
			/>
		<path class="st14" d="M69.9,8L70,6.6c0.1-1.2,0.1-2.4-0.2-3.6l-0.3-1.2c-0.2-0.7-0.7-1.2-1.4-1.3l0,0c-0.5-0.1-1,0.3-1.1,0.9
			l-0.2,3c0,0-0.8-1-1.2-1c-0.4,0,0.5,3,1.4,4.6C67.9,9.6,69.9,8,69.9,8z"/>
		<path class="st14" d="M65.5,30.9l0.3-5c0.5-1,0.8-2.1,0.8-3.3L67,8l2.8,0l1.7,16.4c0.1,0.5,0,1,0,1.5l-1.2,8.4L65.5,30.9z"/>
		<path class="st3" d="M51.2,139.3c0.2,0.5,4,5.2,7.8,6.3c1.6,0.5,2.8,0.6,3.5,0.5c0.7-0.1,1.2-0.8,0.9-1.5c-0.7-1.8-2.5-5.7-7.3-8
			C49.7,133.3,51.2,139.3,51.2,139.3z"/>
		<path class="st3" d="M49.9,141c0,0,1.4,3.4,1.9,6.2c0.3,1.7-0.7,3.9-1.4,5.4c-0.5,0.9-1.7,1.1-2.5,0.4c-1.2-1.1-2.8-3.1-3.1-5.9
			c-0.4-4.7,0-5.5,0-5.5L49.9,141z"/>
		<path class="st18" d="M40.8,83.9c0,0-0.5,6,0,12.6c0.5,6.6,2.3,37.4,2.6,44.8c0,0-0.2,2.2,4.2,1.8c4.3-0.5,4-3,4-3
			s6.1-0.1,6.3-3.7c0.2-3.6,6.3-43,6.3-57.1L40.8,83.9z"/>
		<path class="st10" d="M51.5,140.1c0,0,0.8,0,1.7-0.2l0,0L54.5,92L51.5,140.1z"/>
		<path class="st1" d="M63.6,25.4c0.9-1.3,5.4-0.5,7.7,0.1c0.7,0.2,1.3,0.8,1.4,1.6c1.9,20-7.9,27-7.9,27L61,40
			C66.5,40.9,62.4,27.1,63.6,25.4z"/>
		<path class="st1" d="M32.9,29.8c2.2-0.8,6.6-2.1,7.6-0.9c1.4,1.6-1.2,15.8,4.3,14.3l-5,12.8c0,0-7.7-4.4-8.1-24.5
			C31.7,30.8,32.2,30.1,32.9,29.8z"/>
		<path class="st1" d="M50.7,39.5C40,43,39.8,49.1,39.8,49.1s0.4,22.5-1.4,37.4c-0.8,6.2,32.7,9.2,28.9-7.8
			c-4.4-20.1-1-35.8-3.6-38.4C61.1,37.7,53.4,38.6,50.7,39.5z"/>
		<path class="st14" d="M46.9,44.7c0.4,2.1,3,3.4,5.9,2.9c2.9-0.5,4.9-2.7,4.6-4.8c-0.4-2.1-3-3.4-5.9-2.9
			C48.6,40.4,46.5,42.5,46.9,44.7z"/>
		<path class="st12" d="M51.6,48.2c-1,0-2-0.2-2.9-0.6c-1.3-0.6-2.1-1.6-2.3-2.8c-0.2-1.2,0.2-2.4,1.2-3.4c0.9-1,2.3-1.7,3.8-1.9
			c1.5-0.3,3-0.1,4.2,0.5c1.3,0.6,2.1,1.6,2.3,2.8c0.4,2.4-1.8,4.8-5,5.4C52.5,48.2,52.1,48.2,51.6,48.2z M52.8,40.2
			c-0.4,0-0.8,0-1.2,0.1c-1.3,0.2-2.4,0.8-3.2,1.7c-0.7,0.8-1.1,1.7-0.9,2.6l0,0c0.2,0.9,0.8,1.6,1.8,2.1c1,0.5,2.3,0.7,3.6,0.4
			c2.6-0.5,4.5-2.4,4.2-4.2c-0.2-0.9-0.8-1.6-1.8-2.1C54.5,40.4,53.6,40.2,52.8,40.2z"/>
		<path class="st14" d="M54.8,39.3c0,0-0.1,0.4-0.2,3.7c0,1-3.7,1.7-4.6,0.7c-0.9-1-0.4-1.9-0.4-5.5C49.7,34.8,54.8,39.3,54.8,39.3z
			"/>
		<path class="st15" d="M49.7,38.3c0,0,0.6,3.3,4.9,4.9l0.2-3L49.7,38.3z"/>
		<path class="st14" d="M47.6,29.9c-1.4,4.2,0.8,8.7,5,10.1c4.2,1.4,8.7-0.8,10.1-5c1.4-4.2-0.8-8.7-5-10.1
			C53.5,23.5,49,25.7,47.6,29.9z"/>
		<path class="st15" d="M53.2,32.6c0,0,4.2,2.2,7.3,2.4c3,0.2,2.5-2.3,2.5-2.3l-8.9-2L53.2,32.6z"/>
		<path class="st16" d="M61.5,33.7c0,0-3.7-1.9-7.1-1.5c-0.8,0.1-1.6,0.5-2.1,1c-0.2,0.2-0.4,0.4-0.6,0.4c-0.6,0.1-1.4-2.4-2.5-2.6
			c-1.1-0.1-2,0.6-1.1,2.2c0.8,1.6,0.4,3.2-0.1,3.5c-0.5,0.2-4.8-3.7-0.1-11.4c4.7-7.7,14.7-2.6,16.1-0.9c0,0,1.6,1.6,3.1,0.4
			C67,24.8,67.7,36.5,61.5,33.7z"/>
		<path class="st12" d="M57.8,38.1l2.1-0.4c0,0-1.1,1.5-2.6,1.8c-1.5,0.3-1.6-0.9-1.6-0.9L57.8,38.1z"/>
		<path class="st2" d="M33.5,45.3c0,0,6.5,7.2,9.9,8.3c0,0-3.4,9.4-3.9,17.9c0,0,0,0,0,0c0.2-5.7,0.3-11.3,0.3-15.4
			C39.8,56,35.9,53.8,33.5,45.3z"/>
		<path class="st2" d="M72,40.6C69.9,50.3,64.8,54,64.8,54c0-0.6,0-4.8,0-4.8C67.3,47.7,72,40.7,72,40.6z"/>
		<path class="st12" d="M47.3,33.8c0,0.6,0.4,1.2,1.1,1.3c0.6,0,1.2-0.4,1.3-1.1c0-0.6-0.4-1.2-1.1-1.3
			C47.9,32.7,47.3,33.2,47.3,33.8z"/>
	</g>
	<g>
		<polygon class="st0" points="447.7,181.3 437,175.2 426.3,181.3 437,187.5 		"/>
		<polygon class="st6" points="437,181.8 437,174.8 449.8,167.4 449.8,174.4 		"/>
		<polygon class="st5" points="437,174.8 424.2,167.4 424.2,174.4 437,181.8 		"/>
		<polygon class="st7" points="449.8,167.4 437,160 424.2,167.4 437,174.8 		"/>
	</g>
	<g>
		<polygon class="st0" points="285.5,181.1 274.3,174.6 263.2,181.1 274.3,187.5 		"/>
		<polygon class="st19" points="274.3,181.5 274.3,174.3 287.7,166.6 287.7,173.8 		"/>
		<polygon class="st20" points="274.3,174.3 261,166.6 261,173.8 274.3,181.5 		"/>
		<polygon class="st8" points="287.7,166.6 274.3,158.9 261,166.6 274.3,174.3 		"/>
	</g>
	<g>
		<polygon class="st0" points="31,181.1 19.8,174.6 8.7,181.1 19.8,187.5 		"/>
		<polygon class="st2" points="19.8,180.4 19.8,173.1 33.2,165.4 33.2,172.7 		"/>
		<polygon class="st3" points="19.8,173.1 6.5,165.4 6.5,172.7 19.8,180.4 		"/>
		<polygon class="st1" points="33.2,165.4 19.8,157.7 6.5,165.4 19.8,173.1 		"/>
	</g>
</g>
</svg>
